:SAMPLES-PER-SECOND 30
:FULLY-SPECIFIED
:DEGREES
32
root  -33.4069 45.856 -5.61505 0.203472 47.6929 -6.71569
RightUpLeg  12.6086 3.31742 -12.3185
RightLeg  8.45377 15.7192 1.01284
RightFoot  40.8582 -7.23078 14.1096
RightToes  -1.16416e-010 -3.18055e-015 8.94531e-016
Spine  21.5204 1.13469 -25.5466
Spine1  -7.15573 -6.03038 12.7516
HEad  -23.6443 25.3651 -3.39027
LeftShoulder1  0 -2.69403e-036 -1.28585e-037
LeftArm  -24.1797 -55.7402 -0.497286
LeftForeArm  22.7785 0.958106 4.67213
LeftHand  -0.157004 0.349734 3.23569
RightShoulder  -2.48481e-017 0 -8.08114e-019
RightArm  57.5601 -22.8087 81.4615
RightForeArm  -36.5322 26.2693 -24.9946
RightHand  1.42577 -12.0981 -4.65712
LeftUpLeg  -58.7904 25.6645 23.9149
LeftLeg  4.38724 4.87351 2.56168
LeftFoot  8.07161 0.811202 -4.17924
LeftToes  4.03816e-010 4.04885e-011 2.79281e-011
33
root  -29.79 46.4702 -5.35914 -4.15015 45.269 -9.53404
RightUpLeg  19.0551 11.4767 -14.1511
RightLeg  18.7468 18.4128 3.578
RightFoot  41.9865 -5.65751 10.7939
RightToes  -1.16416e-010 -3.18055e-015 8.94531e-016
Spine  19.0073 2.10862 -23.7575
Spine1  -4.32016 -5.58588 14.5916
HEad  -21.1221 27.5731 -3.82098
LeftShoulder1  0 -2.69403e-036 -1.28585e-037
LeftArm  -23.9729 -51.65 11.8117
LeftForeArm  20.8203 0.697466 3.62317
LeftHand  -0.0509701 0.355113 1.56205
RightShoulder  -2.48481e-017 0 -8.08114e-019
RightArm  65.0437 -35.952 59.7993
RightForeArm  -41.1321 21.3404 -17.1645
RightHand  1.62039 -13.1375 -5.48515
LeftUpLeg  -56.4667 32.4418 26.7989
LeftLeg  -0.865114 4.96538 0.301587
LeftFoot  14.2567 1.5967 -6.23775
LeftToes  4.03816e-010 4.04885e-011 2.79281e-011
34
root  -25.8722 46.6513 -5.06203 -5.49855 44.9278 -12.087
RightUpLeg  22.2839 16.3403 -14.817
RightLeg  30.3524 21.7656 7.78249
RightFoot  43.812 -4.75079 8.72336
RightToes  -1.16416e-010 -3.18055e-015 8.94531e-016
Spine  13.8505 1.87732 -21.6695
Spine1  -1.42501 -6.4676 18.531
HEad  -19.8152 30.1416 -5.21293
LeftShoulder1  0 -2.69403e-036 -1.28585e-037
LeftArm  -22.8633 -46.4163 19.0636
LeftForeArm  18.7066 0.684733 3.40004
LeftHand  0.0668367 -0.0892658 -1.17584
RightShoulder  -2.48481e-017 0 -8.08114e-019
RightArm  59.4797 -41.2931 28.3017
RightForeArm  -30.85 17.8629 -5.22141
RightHand  1.56333 -13.2509 -4.27277
LeftUpLeg  -57.417 36.6113 28.162
LeftLeg  -3.96066 11.309 -1.98426
LeftFoot  15.2459 1.84459 -7.0464
LeftToes  4.03816e-010 4.04885e-011 2.79281e-011
35
root  -22.202 46.4626 -4.85534 -4.48191 45.0876 -12.9449
RightUpLeg  22.2344 19.2561 -15.884
RightLeg  42.8315 21.4705 11.2218
RightFoot  44.3651 -3.89851 7.07185
RightToes  -1.16416e-010 -3.18055e-015 8.94531e-016
Spine  7.43172 1.1997 -20.182
Spine1  3.19196 -8.37658 20.936
HEad  -20.7378 33.304 -7.23484
LeftShoulder1  0 -2.69403e-036 -1.28585e-037
LeftArm  -21.2121 -40.6268 25.1265
LeftForeArm  17.4599 0.756901 3.54022
LeftHand  0.106979 -0.338912 -2.21711
RightShoulder  -2.48481e-017 0 -8.08114e-019
RightArm  63.219 -39.476 -0.86359
RightForeArm  -29.5299 15.5219 0.12582
RightHand  1.4785 -13.5113 -2.38943
LeftUpLeg  -58.0033 37.5934 28.7979
LeftLeg  -4.67015 14.9221 -1.7802
LeftFoot  14.8498 1.54329 -5.95837
LeftToes  4.03816e-010 4.04885e-011 2.79281e-011
36
root  -18.8413 46.0553 -4.77224 -3.51188 45.0001 -12.877
RightUpLeg  20.5597 20.2334 -17.4433
RightLeg  52.4683 18.7541 11.5739
RightFoot  44.1829 -2.57961 4.69611
RightToes  -1.16416e-010 -3.18055e-015 8.94531e-016
Spine  2.0078 -0.0424511 -17.2169
Spine1  9.57059 -10.0183 18.1133
HEad  -22.7257 36.8359 -9.34042
LeftShoulder1  0 -2.69403e-036 -1.28585e-037
LeftArm  -18.0581 -34.7767 30.7566
LeftForeArm  15.1229 0.693856 3.14915
LeftHand  0.0699666 -0.257941 -1.53673
RightShoulder  -2.48481e-017 0 -8.08114e-019
RightArm  80.2937 -37.4098 -20.993
RightForeArm  -38.8268 16.8696 -1.188
RightHand  1.53762 -13.9519 -2.45342
LeftUpLeg  -55.2657 36.9698 29.1273
LeftLeg  -4.04266 10.7835 -1.41657
LeftFoot  18.2698 1.84213 -6.32061
LeftToes  4.03816e-010 4.04885e-011 2.79281e-011
37
root  -15.3474 45.3793 -4.78325 -3.65708 44.8073 -13.0381
RightUpLeg  18.3512 19.46 -18.6321
RightLeg  57.8584 16.3469 10.0353
RightFoot  42.9651 -0.963107 1.78696
RightToes  -1.16416e-010 -3.18055e-015 8.94531e-016
Spine  -1.33273 -1.70247 -12.6603
Spine1  14.898 -10.6973 12.5433
HEad  -24.0829 40.2154 -11.2364
LeftShoulder1  0 -2.69403e-036 -1.28585e-037
LeftArm  -14.0512 -29.0256 34.9473
LeftForeArm  10.5869 0.521442 2.2658
LeftHand  0.0601502 -0.26505 -1.4017
RightShoulder  -2.48481e-017 0 -8.08114e-019
RightArm  91.4508 -37.0244 -33.5225
RightForeArm  -44.1043 17.9955 -2.8148
RightHand  1.76059 -14.6164 -4.37176
LeftUpLeg  -49.7555 35.4526 29.5882
LeftLeg  -3.4176 6.23409 -2.37951
LeftFoot  24.3579 3.107 -8.81757
LeftToes  4.03816e-010 4.04885e-011 2.79281e-011
38
root  -11.827 44.3615 -4.8836 -4.168 45.0662 -13.196
RightUpLeg  15.6291 17.5242 -18.8496
RightLeg  61.6513 15.2509 9.45
RightFoot  38.2889 0.194682 -0.449851
RightToes  -1.16416e-010 -3.18055e-015 8.94531e-016
Spine  -2.2775 -3.31461 -9.77749
Spine1  17.4334 -11.4859 9.63109
HEad  -24.2525 42.6747 -13.0086
LeftShoulder1  0 -2.69403e-036 -1.28585e-037
LeftArm  -10.9867 -23.5624 36.6184
LeftForeArm  6.2137 0.461849 1.81887
LeftHand  0.140712 -0.156527 -2.40998
RightShoulder  -2.48481e-017 0 -8.08114e-019
RightArm  85.3568 -38.1979 -40.1174
RightForeArm  -41.1418 16.564 -1.40205
RightHand  1.89817 -15.2225 -5.04101
LeftUpLeg  -43.5318 32.172 29.568
LeftLeg  -3.40651 9.35468 -3.14631
LeftFoot  30.5689 4.59555 -11.1022
LeftToes  4.03816e-010 4.04885e-011 2.79281e-011
39
root  -8.53192 43.0997 -5.0335 -4.37249 46.0564 -12.8052
RightUpLeg  12.4749 15.0407 -17.9066
RightLeg  65.7361 14.899 10.3155
RightFoot  29.0874 0.438818 -1.1774
RightToes  -1.16416e-010 -3.18055e-015 8.94531e-016
Spine  -1.68909 -4.62395 -9.56864
Spine1  18.421 -12.4442 9.49555
HEad  -23.4324 43.9823 -14.3078
LeftShoulder1  0 -2.69403e-036 -1.28585e-037
LeftArm  -9.19922 -19.2559 35.2729
LeftForeArm  5.0266 0.524714 1.96988
LeftHand  0.201457 0.144939 -2.80113
RightShoulder  -2.48481e-017 0 -8.08114e-019
RightArm  77.8262 -42.332 -42.4704
RightForeArm  -38.929 14.9637 -0.457254
RightHand  1.82209 -15.5146 -3.60722
LeftUpLeg  -37.7346 27.4079 27.6425
LeftLeg  -3.318 16.3108 -3.5917
LeftFoot  38.2013 5.93084 -11.9669
LeftToes  4.03816e-010 4.04885e-011 2.79281e-011
40
root  -5.20811 41.5199 -5.20838 -4.36365 47.1738 -12.3693
RightUpLeg  8.96344 12.4447 -16.422
RightLeg  69.4415 14.6013 11.3745
RightFoot  16.8386 0.179854 -0.672775
RightToes  -1.16416e-010 -3.18055e-015 8.94531e-016
Spine  -1.49773 -5.50232 -9.15009
Spine1  18.9315 -12.6335 9.23246
HEad  -21.239 44.0469 -14.4892
LeftShoulder1  0 -2.69403e-036 -1.28585e-037
LeftArm  -7.28682 -16.8072 31.0235
LeftForeArm  7.08139 0.490342 1.90261
LeftHand  0.119923 -0.0590872 -1.92546
RightShoulder  -2.48481e-017 0 -8.08114e-019
RightArm  81.3251 -49.0935 -41.248
RightForeArm  -39.7225 15.3408 -1.03127
RightHand  1.66348 -15.0828 -2.27603
LeftUpLeg  -32.829 22.7907 24.0211
LeftLeg  -1.08074 17.7589 -4.0921
LeftFoot  44.097 6.58784 -11.7581
LeftToes  4.03816e-010 4.04885e-011 2.79281e-011
